<?xml version="1.0" encoding="UTF-8" standalone="no"?>
<!-- Generator: Adobe Illustrator 19.0.0, SVG Export Plug-In . SVG Version: 6.00 Build 0)  -->

<svg
   xmlns:dc="http://purl.org/dc/elements/1.1/"
   xmlns:cc="http://creativecommons.org/ns#"
   xmlns:rdf="http://www.w3.org/1999/02/22-rdf-syntax-ns#"
   xmlns:svg="http://www.w3.org/2000/svg"
   xmlns="http://www.w3.org/2000/svg"
   xmlns:sodipodi="http://sodipodi.sourceforge.net/DTD/sodipodi-0.dtd"
   xmlns:inkscape="http://www.inkscape.org/namespaces/inkscape"
   version="1.1"
   id="Capa_1"
   x="0px"
   y="0px"
   viewBox="0 0 512 512"
   xml:space="preserve"
   inkscape:version="0.91 r13725"
   sodipodi:docname="shield.svg"
   width="512"
   height="512"><metadata
     id="metadata43"><rdf:RDF><cc:Work
         rdf:about=""><dc:format>image/svg+xml</dc:format><dc:type
           rdf:resource="http://purl.org/dc/dcmitype/StillImage" /><dc:title></dc:title></cc:Work></rdf:RDF></metadata><defs
     id="defs41" /><sodipodi:namedview
     pagecolor="#ffffff"
     bordercolor="#666666"
     borderopacity="1"
     objecttolerance="10"
     gridtolerance="10"
     guidetolerance="10"
     inkscape:pageopacity="0"
     inkscape:pageshadow="2"
     inkscape:window-width="1536"
     inkscape:window-height="801"
     id="namedview39"
     showgrid="false"
     fit-margin-top="0"
     fit-margin-left="0"
     fit-margin-right="0"
     fit-margin-bottom="0"
     inkscape:zoom="0.50862069"
     inkscape:cx="-247.30322"
     inkscape:cy="29.933256"
     inkscape:window-x="-8"
     inkscape:window-y="-8"
     inkscape:window-maximized="1"
     inkscape:current-layer="g4178" /><g
     id="g9"
     transform="translate(547.69153,14.698658)" /><g
     id="g11"
     transform="translate(547.69153,14.698658)" /><g
     id="g13"
     transform="translate(547.69153,14.698658)" /><g
     id="g15"
     transform="translate(547.69153,14.698658)" /><g
     id="g17"
     transform="translate(547.69153,14.698658)" /><g
     id="g19"
     transform="translate(547.69153,14.698658)" /><g
     id="g21"
     transform="translate(547.69153,14.698658)" /><g
     id="g23"
     transform="translate(547.69153,14.698658)" /><g
     id="g25"
     transform="translate(547.69153,14.698658)" /><g
     id="g27"
     transform="translate(547.69153,14.698658)" /><g
     id="g29"
     transform="translate(547.69153,14.698658)" /><g
     id="g31"
     transform="translate(547.69153,14.698658)" /><g
     id="g33"
     transform="translate(547.69153,14.698658)" /><g
     id="g35"
     transform="translate(547.69153,14.698658)" /><g
     id="g37"
     transform="translate(547.69153,14.698658)" /><g
     id="g4178"
     inkscape:export-filename="C:\Users\g-sta\OneDrive\Documents\GitHub\FirebaseLogin\app\src\main\res\drawable\icon.png"
     inkscape:export-xdpi="90"
     inkscape:export-ydpi="90"
     transform="translate(547.69153,14.698658)"><g
       id="g4185"><rect
         style="opacity:1;fill:#cccccc;fill-opacity:1;stroke:none;stroke-width:8.79249573;stroke-linecap:round;stroke-miterlimit:4;stroke-dasharray:none;stroke-dashoffset:0;stroke-opacity:1"
         id="rect4171"
         width="512"
         height="512"
         x="-547.69153"
         y="-14.698658"
         ry="7.3365798"
         rx="8.2388401" /><g
         id="g4173"
         transform="translate(-523.69152,9.301342)"><path
           id="path3"
           d="M 242.544,6.472 232,0 221.456,6.472 C 174.427,35.453 118.127,45.439 64,34.4 l 0,245.92 c -0.012,30.171 8.015,59.801 23.256,85.84 17.464,29.924 43.938,53.564 75.64,67.544 L 232,464 301.104,433.704 c 3.701,-1.6 7.333,-3.357 10.896,-5.272 l 0,-0.048 c 26.917,-14.348 49.32,-35.89 64.712,-62.224 C 391.97,340.115 400.008,310.473 400,280.288 L 400,34.4 C 345.873,45.439 289.573,35.453 242.544,6.472 Z"
           style="fill:#2276bb"
           inkscape:connector-curvature="0" /><path
           id="path5"
           d="m 232,48 -8.36,5.136 C 186.337,76.112 141.685,84.021 98.76,75.256 l 0,195.04 c -0.025,23.935 6.326,47.445 18.4,68.112 13.854,23.741 34.853,42.5 60,53.6 L 232,416 232,48 Z"
           style="fill:#1d5c88"
           inkscape:connector-curvature="0" /><path
           id="path7"
           d="m 152,248 64,64 136,-136 -32,-32 -104,104 -32,-32 -32,32 z"
           style="fill:#59ce41"
           inkscape:connector-curvature="0" /></g></g></g></svg>